<svg xmlns="http://www.w3.org/2000/svg" viewBox="0 0 1600 1200"><path fill="#0AB7E0" d="M1196 791c-452 26-256 596 134 792-345 0-1142-325-1142-723 0-397 38-789 383-789s625 322 625 720Z"/><path fill="#E16197" d="M1953-134c0 461-257 630-534 630S918 123 918-338s257-630 534-630 501 374 501 834Z"/><path fill="#2E39A9" d="M945-1072c633 63 870 882 826 1330-45 448-299-59-932-123C207 72 311-80 356-527c-450 95-44-608 589-545Z"/><path fill="#F4F3EF" d="M1249-578c346 34 445 706 421 949-25 244-164-32-509-66-345-35-531-149-506-393 24-243 249-524 594-490Z" opacity=".1"/><path fill="#0AB7E0" d="M1215-398c227 22 52 565 31 780-22 215-107-25-334-48C686 312 368 222 389 7c22-215 599-428 826-405Z"/><path fill="#9844AF" d="M1704 340c235 425-11 1054-289 1210-279 156-674-307-871-661C346 535 716-209 1157-99a902 902 0 0 1 547 439Z"/><path fill="#F4F3EF" d="M1682 952c13 292-91 500-260 594-170 95-417-168-530-402-241-498 83-1163 436-894a935 935 0 0 1 354 702Z" opacity=".1"/><path fill="#E2164B" d="M1910 809c13 293-124 580-260 595-187 21-239-208-245-396-5-193 146-692 245-259 73 319 248-212 260 60Z"/><path fill="#FF612E" d="M1303 855c-177 341-922 768-1621 596S-1 1189-1 791C-1 394 224 72 568 72c148 0 284 60 392 159 221 141 452 414 343 624Z"/><path fill="#FFCD00" d="M204 941c-399 101-981 64-873-240C-490 200-57-136 479-68c211 26 413 191 513 345 231 353-180 510-788 664Z"/><path fill="#B2CD0D" d="M78-378c396 75 939 397 705 872C653 756 71 978-130 888-464 739-563-498 78-378Z"/><path fill="#0AB7E0" d="M366 612C131 948-620 1159-943 933c-323-227-98-805 138-1142 235-336 547-525 870-298C389-281 602 275 366 612Z"/><path fill="#2E39A9" d="M42 667c-300 280-1016 396-1236 160s-110-804 190-1084C-704-536-130-606 90-371 310-135 342 388 42 667Z"/></svg>