<svg xmlns="http://www.w3.org/2000/svg" xml:space="preserve" viewBox="0 217 1590 939"><path fill="#006400" d="M1603.2 731.7c-.9-70.1-42.1-98.2-42.1-98.2s12.9 26.4 20.1 50.1c7.3 23.6 7.3 131.8 0 161-4 15.9-31 39.6-54.6 57.9 14.6-34.3 36.7-88.6 40.9-114.3 3.7-22.8 5.6-46 3.4-68.4 6-19.7 10.3-36.2 10.3-36.2s-3.7 13.2-11.1 29.7a148.5 148.5 0 0 0-10.9-39.6c-15.6-35.5-27.6-49.2-27.6-49.2s23.2 57 24.8 94.5c.5 11.9-.1 24-1.3 35.8l-.1.4c-7.3 3.2-17.1 7.3-27.8 11.3a267 267 0 0 0-16 6.9c1.1-12.3 2.3-24.1 3.2-31.5 2.8-21.9.9-83.7 0-81-.9 2.8-19.2 74.6-21.1 99.1-.5 6.6-1.6 14.8-2.9 23.9a716.6 716.6 0 0 0-39 22.4c-.8-17.6-2.3-31.8-2.3-31.8s-4.5 13.9-10.7 40l-8.6 5.8c-5.4 3.8-11 8.3-16.6 13.1l1.9-4.5s53.3-105.5 57.8-109.2c4.6-3.6 56.8-119.1 56.8-119.1s-56.8 66.4-78.8 98.2c-22 31.8-76.2 152.8-83.5 161.9a811.1 811.1 0 0 1-33 32.6l-3.6-15.6c6.1-16 12.5-33.5 18.2-49.8 18-51 23.8-131.7 23.8-131.7s-19.2 63.7-31.1 104.5a1351 1351 0 0 1-16.7 51.8l-6.5-28C1338.3 761.3 1364 675 1373 617c13.8-89.2 39.5-242.9 39.5-242.9s-23.8 81.9-32.1 117.4-37.6 204.7-37.6 204.7 4.6-27.3 5.6-52.7c.9-25.4 20.1-106.4 20.1-106.4s-30.2 71.8-42.1 106.4c-8.2 23.9-13.9 70.5-21.7 114-6.1-44.9-13.1-133.2-13.1-133.2s-1.9 99.1 0 143.9c.4 8.5 1.7 19.9 3.8 32.9-.9 3.7-2 7.2-2.9 10.6-7.7 25.3-17.9 54.2-26.4 77.1 1.2-37.5-15.2-120.6-15.2-120.6s2.3 28.9 3.2 67.2c.7 26.8-1.5 62.7-3.7 85.1v-11.4c0-10.1-20.1-72.7-20.1-72.7s-2.8 23.7 2.8 51.8c2.8 14.2 3 28.8 2.5 39.9l-18.2-51.7 13.8 72.2-5.6 4.2-13.8-35.5v49.2l-27.6 9.1s6.4-22.8 11.9-43.7c5.6-20.9 45.8-168.3 48.6-194.6 2.8-26.4 0-60 0-60s-12.9 33.7-14.7 50.1c-1.9 16.4-11 43.7-25.7 80a327.8 327.8 0 0 1-21.3 44l3.7-70.4c1.7-30.9 19.3-127.3 19.3-127.3s-22 51.8-32.1 127.3a1134 1134 0 0 0-4.6 39c-4.2-24-9.7-54.6-14.3-81.4 6.9-23.6 12.7-43.2 15.4-53.3 9.1-34.6 29.4-141 29.4-141s-29.4 85.5-39.5 126.4c-2.3 9.1-6 22-10.5 37.2-2-11.8-3.4-21.2-4.2-26.2-3.8-27.6-41.3-173.7-52.3-204.7s-36.7-65.5-36.7-65.5 11 34.6 17.5 57.2c6.4 22.8 10.1 38.2 10.1 38.2s-77.9-169.2-91.7-196.5-55.9-81-55.9-81 50.5 104.5 64.3 131.8c13.8 27.3 87.2 175.6 95.4 206.4s12.9 64.5 16.6 103.7c2.5 26.5 9.5 62.9 17.9 98.4a9229 9229 0 0 1-25.4 79l-6.9-27.4c23.3-62.3 15.2-115.3 15.2-98 0 14.4-11.4 47.7-14.2 56.8 1.1-9.9-.5-47.7-.5-47.7s-4.8 21.5-11.1 45.6a1919.4 1919.4 0 0 1-22.8-101.1c-3.7-24.5-45.8-155.6-45.8-155.6s22 111.8 35.8 161.9c2.4 8.5 4.8 18.3 7 28.6-2.5 8.2-8.6 28.5-14.4 50.5a5310.2 5310.2 0 0 1-29-51.9c4.1-19.6 10.7-38.2 10.7-38.2s-8.2 16.4-14.7 30.1c-.1.1-.1.4-.3.5a350 350 0 0 1-7-12.9 755.7 755.7 0 0 0-40.5-57.6c6.5-17 12.2-31.3 13-32.9 1.9-3.6 18.3-51.8 18.3-51.8s-17.5 23.6-30.2 43.7c-3.7 5.8-8.3 15.1-13 25.2l-4.6-6.1a322 322 0 0 0 8.5-35.5C961.7 554 968 524 968 524s-8.2 11.8-13.8 18.2c-5.6 6.4-3.7 23.6-12.9 40-1.6 2.8-3.3 6.2-5 9.8-4.2-5.6-6.9-8.9-6.9-8.9l6.1 10.5c-8.2 17-17.1 38.7-17.1 38.7l11-128.3c3.7-42.8 0-81.9 0-81.9s-13.8 46.4-17.5 95.5a3151.6 3151.6 0 0 1-19.3 154.6V634c0-6.2-.8-27.6-1.6-50.9-.7 7.6-1.6 15.6-2.9 24.5a1973.3 1973.3 0 0 0-13 147.6 734.1 734.1 0 0 0-14-50.7c-6.9-18.7-13.4-31.4-13.4-31.4s3.7 35.5 9.1 54.2a2160 2160 0 0 1 16.3 61.5c-.8.8-3.8 4.4-8.2 14.6-10.2-36.2-29.8-103.7-38.4-124.3a327.5 327.5 0 0 0-19.3-36.8c5-31.4 8.6-65.3 7.4-90.1-2.8-53.7-37.5-97.4-37.5-97.4s29.3 92.8 28.4 124.7c-.5 17-2.3 34.7-5.4 50.7-11.9-19.7-22.9-36.4-22.9-36.4s10.5 21.6 20.4 48c-2.4 9.5-5.2 18.2-8.6 25.2-10.1 20.9-23.8 69.2-33 95.5l-1.7 4.8-5-13.8c2.7-9 5-17.4 6.8-23.7 8.2-30.1 17.5-150.1 13.2-176.5-4.1-26.4-39.9-53.7-39.9-53.7s9.1 8.2 22 37.2c12.9 29.2 13.8 42.8 9.1 76.5-3.7 26.9-9 68.8-20.4 113.7-2.5-8-4.4-14.6-5.3-18.8a142 142 0 0 0-6.4-20c3.4-28.6 5.4-51.1 5.4-51.1l-9.7 40c-9.9-24.9-23.1-52.7-23.1-52.7s8.9 50.1 13.4 66l3.4 12.1-21.6 89.3s-1.2-58.2-.3-79.1c.7-15.2-.1-65.1-2.7-95.9 2.5-9.8 4.8-17.8 6.4-22.7C706.2 574.4 684 487 684 487s7.3 39.1 6.4 83.7c-.1 6.2-.7 13-1.6 20.3-6.6-12.6-28.6-28.5-28.6-28.5s10.1 12.7 19.2 42.8c1.7 5.4 2.8 11.9 3.6 18.9-8.1 39-20.1 81.4-23.9 103.5-2.3 13.8-1.1 38.4 1.6 63.3-1.7 2.7-3.7 5.3-5.7 8.1l-5-29.1s3.7-82.8 5.6-141.9c1.7-54.3-9.8-81.8-11.7-85.9 4.9-15.1 10.3-30.9 17.2-50.6 17.5-50.1 29.4-94.6 29.4-94.6s-35.8 62.8-44 90.1c-8.2 27.3-37.6 111.8-40.4 137.4-1.2 11-1.5 40.1-.9 73.3l-3 5.8c-18.3-44-41.6-103.7-42.9-123.6-1.9-30.1 5.6-232 5.6-232S545.2 526.5 547 570.1c1.9 43.7 4.9 60.4 16.6 88.2 5.4 13 16.4 38.2 28.4 64.9-4.8 9.5-8.6 17.2-9.9 20.5-.9 2.4-3.8 9-8.1 18.4a6121.8 6121.8 0 0 0-29.3-174.2c-4.6-19.1-35.8-188.3-35.8-188.3s-5.6 16.4-4.6 37.2c.9 20.9 13.8 101.9 23.9 157.4 4.5 24.5 12.3 80.4 19.7 135.1-3.4 4.9-9 13.4-17.2 26.4l-15.5-35.5c6.9-31.9 2.9-77.2 2.9-72.2 0 4.5-2.5 26-11.4 52.7l-6-13.5c-3.4-7.3-25.2-39.6-45.3-68.6l.4-2.3c8.2-51.8 3.7-113.7 6.4-152.8 2.8-39.1 0-82.8 0-82.8s-11.9 67.3-16.6 97.4c-2.5 16.2-6.2 63.3-10.1 112a5610.9 5610.9 0 0 1-79-115.7S392.2 551 417 594.3a482 482 0 0 0 16 25.7 3625.7 3625.7 0 0 1-8.4 92.7 1603 1603 0 0 0-25.2-61.1c-.5-7.8-.8-14.6-.8-18.8 0-13.6-3.7-33.7-5.6-38.2-1.5-3.6-.7 24.9-.1 42.7a283.3 283.3 0 0 0-13.5-26.4c-19.5-29.9-88.1-123.8-88.1-123.8l86.3 137.1c5 8.1 10.2 18 15.5 29.5-.3 18.8-1.5 65.5-.8 73.8.4 4 0 12.6.1 23.1l-7.9 5.7-3.3-34.7c-3.7-41.9 6.2-66.4 6.2-66.4s-11.7 17.2-13.5 24.5-7.3 27.3-2.8 66.4l2.3 18.2-16.4 11.5c-.7-21.1-2.3-40-5-48.2-1.7-5.3-5.6-11-10.5-17 7.7-29.3 20.5-66.4 20.5-66.4s-16 31.3-27.4 58.3c-9.8-10.9-21.1-22-27.7-31.9-11.9-18.2-23.2-46.4-23.2-46.4s12.2 39.2 20.5 55.1c4.4 8.5 14.8 24.4 24 39.8-1.1 2.8-1.9 5.6-2.6 8-6 20.3-6.8 40.9-4.9 74.1a2083.8 2083.8 0 0 0-46.6 33.3l-5.6-83.2c10.5-16.4 17.5-25.6 14.7-23.2-3.4 3-8.7 8.3-15.2 15.5a2578 2578 0 0 1-3.2-56.4c-.9-36.4 0-108.3 0-108.3s-11 46.4-14.7 111a1038 1038 0 0 0-.3 73.7l-8.1 9.1a98.8 98.8 0 0 0-14.8 25.6c-9.4-31.1-18.9-61.5-24.6-77.4-3-8.3-6.4-17-9.7-25.4 7.7-11.5 12.3-19.1 8.7-14.6-2.3 2.9-6 6.2-10.5 10.3-12.6-31.1-25.3-58.4-25.3-58.4s1.9 22.8 10.1 50.9l4.9 16.7a216 216 0 0 0-25 26c-1.9 2.4-4.1 5.2-6.6 8.1-6.4-14-11.8-28.1-15.2-37.4l1.7-4.5 1.9-5 44-120.4s-16.6 17.2-24.8 32.7c-8.2 15.5-25.7 74.6-25.7 74.6s-3.7-55.5-4.6-73.7c-.9-18.2 4.6-72.7 4.6-72.7s-12.9 21.9-18.3 65.5 9.1 101.9 9.1 101.9l-24.8 69.2-11-69.2s-1.9 27.3-2.8 48.2c-.4 10.6 3 37 6.6 60.7l-2 2.3c-4.1-18-8.7-37.4-11.9-48.4-7.3-24.5-22.9-62.8-22.9-62.8s14.7 79.1 21.1 111l2.7 13.2-8.2 9.5a65.7 65.7 0 0 0-5.4 7.6C53.8 780.3 42.7 713 38 697.3 29.9 668.9-.3 547.9-.3 547.9s-1.9 19.1 2.8 45.4 6.4 70.1 9.1 102.8 11.9 121 11.9 121-47.7-90.1-58.7-121.9c-11-31.8-64.3-167.3-64.3-167.3s15.6 102.8 33.9 162.8c13.9 45.6 70.1 163 96.5 216.8a1582 1582 0 0 0-24.8 71.3 2011 2011 0 0 0-17.4-114.3c-8.2-38.2-31.1-106.4-31.1-106.4s12.9 99.1 19.2 151.8 11.9 147.3 11.9 147.3V1160h1604v-102.8c.1.2 11.5-255.4 10.5-325.5zM109.6 800.9c4.1-5 8.2-10.1 12.5-15.1-.8 7.7-1.6 16.2-2.1 25.2-1.9 30.1-3.7 49.2-3.7 49.2s-5-32.6-6.7-59.3zm188.1 210.8c7.7-17.1 17.9-42.5 27.6-68.9-.5 33.5-1.7 59.9-1.7 59.9l-20.1 26.4-5.8-17.4zm41.2-201.2c.2 0 .2 0 0 0v.4c.2-.1 0-.2 0-.4zm11 134.5c8.7-9.7 22.7-24.5 37.5-40.5-.4 13.9-1.5 22.8-1.5 22.8l-33 47.3c-.1 0-1.4-12.7-3-29.6zm61-26.2c4.8 4.8 9.3 9.3 13.5 13.2-11.9 28.5-24.2 58.2-23.9 56.2.3-1 4.6-29 10.4-69.4zm-4.8-140.7a72 72 0 0 1-.9-15l13.1-8.9c-2.3 13.2-4.9 27-7.4 40-2.5-7.1-4.3-12.8-4.8-16.1zm39.8 104.4c-3.8-9-8-18.9-12.1-29a235.8 235.8 0 0 0 20.7-25.7l5.3 18.3c-5.1 14.3-11 30.4-13.9 36.4zm15.5-69.8 3.2-9.1c6.5 24.2 4 17.4 4 17.4l-2.3 6.8-4.9-15.1zm141.1 114 6.4 5c-2.8 3.6-4.5 3.7-4.5 3.7l-1.9-8.7zm28.6-117.6c2.3 5.3 3.8 9.8 4.9 13.6l-2.9 3.2-2-16.8zm44.3-40.2.7-2.6-.1 6.5-.6-3.9zm122.4 173 4.1-8 4 10.9-8.1-2.9zm18.5-35.4 4.4-8.3c3-5.7 5.8-12.1 8.3-18.3l5.3 20.8-8.5 29-9.5-23.2zm22.4-54.5c1.9-6 3.2-11 4-14l4.8 18.3-3.8 12.9-5-17.2zm182.3-21.7c3.8.7 8 1.3 11.9 2.3-2.5 34.5-4.1 101.8-4.1 101.8l-7.8-104.1zm121 118.4-2.7 23.5a2759 2759 0 0 0-18.5-41.5l4.6-10.9 16.6 28.9zm-9.4-43.9c4.2-8.5 8.6-16.3 12.9-21.7l1.5-1.9c-.4 13.6-1.3 27.8-2.4 41.2-4-5.7-8.1-11.7-12-17.6zm4.4 86.1-.7 4.6-24.8 6.4s-8.2-30.1-2.8-41.9l6-14.3c8.5 17 16.3 33 22.3 45.2zm369.9-169.1 2.5-30.3 44-31.7c-3.8 11-8.7 21.9-16.2 31.1-4.8 6-16.4 18.8-30.9 34.3l.6-3.4zm-5.3 32.7 6.2-6.4c15.2-15.8 33.3-51.7 45.7-81.1a508.6 508.6 0 0 1-11 53.4c-4.2 17-25.6 67.8-39 99l-14 9.7 12.1-74.6zm-49.9-21.4c7.7-5.8 15.2-11.4 22.3-16.3l12.6-8.9c-2.7 15.8-5.6 32.3-7.8 46.8a8001.7 8001.7 0 0 1-39.6 41.6 498.1 498.1 0 0 0 12.5-63.2zm-20 90.7 33.9-33.4c-14.6 23.1-36.7 43.3-36.7 43.3l2.8-9.9zm-37.1-45c10.2-8.6 22.4-18.4 34.8-28.5-8.6 28-19.9 47.8-19.9 47.8l-33.9 26.4 19-45.7zm-98.7 19.3c2.1-7.6 6.1-20.1 11.1-36.3 2 9 3.8 17.8 5.8 26-5.6 15.6-11 29.9-15.4 40.8l-19.9 18.7s8.3-12.7 18.4-49.2zM1137.1 798l5.6 21.1c2.5 9 3.7 21.2 4.2 34.7-7.4 6.5-15.9 20.7-23.5 37.1-3.8-5.8-7.2-11.1-9.5-15.4l23.2-77.5zm-29.3 97.5 1.3-4.2 8.1 14-3.7 9.4-6.9-14.8 1.2-4.4zm-6.6 23.3 6.1 12.1c-9.3 22.9-19.7 40-19.7 40s7.1-27.7 13.6-52.1zm-49.3 64v-33.7s11.3-32.7 26.5-74.3c3.6 6.5 7.4 13.8 11.4 21.5-16.9 48.7-37.9 86.5-37.9 86.5zm34.7-130.5 11.1 19.2-2 6.1c-3.6-7.4-7.4-13.9-11.3-19.6.9-2 1.6-3.9 2.2-5.7zm-24.5-138.1c7.2 31.5 13.9 68.1 17.9 91l-3.2 10.2-23.2-41.2c3.5-19.3 7.1-47.8 8.5-60zm-11.4 76.5 21.9 37.2-4.2 11c-7.6-7-15-11.9-22.1-15.2 1.6-13.3 3.2-25.1 4.4-33zm8.5 52.8c1.2 1.2 2.8 3.3 4.8 6.4-12.5 30.6-27.7 63.7-27.7 63.7s4.2-41.2 8.5-77.8c5.9 2 11.1 4.7 14.4 7.7zm-43.9-111.8a429 429 0 0 0 18.3 31l9.7 15.5a486.1 486.1 0 0 0-8.9 41.1 60.8 60.8 0 0 0-14.3-2.4c-2.7-37.4-4.9-71.6-4.9-81.5l.1-3.7zm-6.7-12.3a217.5 217.5 0 0 0-7.2 48.8c0 19.1-9.1 49.2-9.1 49.2s-3.7 8.2-2.8-17.2c.9-25.4-3.7-50.1-3.7-50.1s-2.8 14.6-1.9 30.9c.9 16.4-14.7 32.7-14.7 32.7s-2.8-19.1 2.8-42.8c5.6-23.6 0-41.9 0-41.9l-20.1 64.5s5.6-43.7 10.1-67.3c4.4-22.4 17.8-54.6 19.1-57.9 8.5 15 18.2 33.6 27.5 51.1zM948.4 616l3.7 6.1c-10.5 23.5-20.4 49.6-20.4 49.6s9.1-28.8 16.7-55.7zm-2 74.8c1.9-8.6 9.7-30.5 17.2-50.5 2 3 3.8 6 5.7 8.7 3.6 5.2 7.6 11.8 11.8 19.3-1.5 1.6-11.4 13-19.1 30.7-8.2 19.1-26.6 106.4-26.6 106.4l-3.7-25.4c0-.1 11-71.9 14.7-89.2zm-157.8 32.7a415 415 0 0 0 15.2-63.2 404 404 0 0 1 5.3 16.8c8.9 31.4 37.5 110.4 47.8 148l-5.3 17.4C837 801 809.2 690.3 809.2 690.3s-3 18.7 5.2 43.2c5.3 15.9 19.1 68.4 28.2 103.3-1.1 2.1-2.8 5.7-5.2 10.1-3.6-12.2-7-23.6-9.3-29.9-6.4-18.5-37.6-83.3-37.6-83.3s14.7 34.6 18.7 61.9c2 13.8 9.4 43.5 16.3 70.6a332.3 332.3 0 0 0-16.3 23.2 508.2 508.2 0 0 0-24.2-51.1c-3.8-6.5-8.1-15.4-12.6-25.4 5.4-30.2 10.9-59.1 10.9-59.1l-14.8 50c-2.1-4.8-4.1-9.8-6.2-15 10.7-27.5 22.4-55.6 26.3-65.3zm-21.3 117.9c8 19.6 17.9 46.5 26.9 71.3-9.5 15.2-17.4 28.2-17.4 28.2l-15.6-27.3s-.9-17.2.9-37.2c.4-6 2.6-19.2 5.2-35zm-13.9-31c1.1 2.5 2.1 4.6 3.2 6.5 1.3 2.4 2.9 5.8 4.8 10.1l-16.7 56.2s-5.6-26.8-5.6-33.1c0-2.6 6.2-19.2 14.3-39.7zm-12.1-31.9L745 789c-9.4 21.3-19.6 41.9-19.6 41.9s7.9-25.5 15.9-52.4zm-28.8 3.3c4.2-16.4 8.1-37.9 11.1-59.4 2.8 9.3 5.8 19.5 9.1 29.9l-2.9 9.4c-18.3 57.2-33 101.9-33 101.9s2.8-32.8 15.7-81.8zm-40.3-69.2c1.9-12.1 6.9-36.2 12.3-59.9 0 25.6-2.9 51.7-5 63.5a418.5 418.5 0 0 0-3.4 50.1l-.8 1.5c-2.7-22.7-4.7-45.1-3.1-55.2zm-9.3 94.6c1.5 11.1 3.2 21.7 5 31-3 2-5.8.9-5.8.9l-4.2-24.5 5-7.4zm-40.3-187.3c7.7-32.1 13.8-53.8 21.1-76.7-.3 10.2-2.1 69.8-5.8 121.2-4.1 56.4 0 120 0 120s-4.8-10.9-12.3-27.3c-2.4-24.4-4.2-48.9-5.3-70.6 6.4-21.2 10.6-37.6 10.6-37.6L619.8 670c-.6-21.5.2-39.3 2.8-50.1zM618 861.8l.1-.1 4.6 31.7-2.1 8.5a106.6 106.6 0 0 1-9.4 26.1l-13.1-22.3-2.9-14.3a152.1 152.1 0 0 1 22.8-29.6zm-22-105.6c1.7-4 3.6-8.3 5.3-12.9 2 4.2 3.8 8.6 5.7 12.7 1.2 24.4 2.7 46.5 4.8 60.7l3.7 26.4c-8.5 8.1-16.8 18-24.6 28.6-1.1-5.8-2.3-12.9-3-20.9-.8-6.9-4.1-29.2-8.7-58 7-15 12.9-28 16.8-36.6zm-60.6 168.3-8.9-23.5c7.2-14.3 17.1-34.7 27.3-55.9l9.5 24.8-27.9 54.6zm14.2-181.7 7.6 56.7-3.8 8.5c-4.9-11.3-9.9-23.1-15-34.6 6-10.4 9.4-21.6 11.2-30.6zm-3.8 81.8c-9.4 20.5-18.8 41.5-26.4 57.8L503.2 840s12.5-29.7 26.9-53.5c5.5 12.6 10.8 25.6 15.7 38.1zm-36.1-84.5c4.2 8.9 8.6 18.5 12.9 28.5-16.4 27.6-28.5 56.8-28.5 56.8l-3.7-19.1c.1 0 10.6-35.9 19.3-66.2zm-16.5-31.8c2 3.4 4.1 7.2 6.2 11.3-14.6 34.5-23.6 69.6-23.6 69.6l-4.5-12.3c2.3-11.1 3.6-21.5 3.6-28.6v-35.5s-3.6 19.1-11.3 42.5l-12.1-33.5 29.5-33.5a730 730 0 0 1 12.2 20zm-42-63.1c8.6 11.8 17.6 24.1 28 40.1a531.9 531.9 0 0 0-32.6 23.1l-3.4-9.5c3.1-20.6 5.7-39 8-53.7zm-13.7 92.3 6-6.8c3.8 12.2 8.3 27.2 13.1 43.9-1.5 3.6-2.9 7.2-4.5 10.7-4.8-13.5-9.9-27.8-15.4-42l.8-5.8zm-3.6 24.4c4.1 12.6 8.1 25 11.7 36.6a135 135 0 0 1-5.6 9.7c-4 6.5-9.4 14-15.6 22.3a8 8 0 0 0-.4-.9l9.9-67.7zm3.7 138.7-6.5 15.4c-4.8-4.8-11-10.9-17.2-17.5l4-27.3 5.6-6.2 14.1 35.6zm-15.2-172.7c-4.2 3.6-9.7 7.8-15.9 12.6 1.1-13.1 1.9-25.8-.4-35.5-2-8.5-3.6-20.5-4.9-32.6 7.2 17 14.3 36.1 21.2 55.5zm-29.1 43.3c.7 8.9 2.1 18 4.5 26 1.5 4.9 4.4 12.9 8.1 22.7-4.5 22.3-8.2 39.6-9.4 45.4l-.5.7-9.3-90 6.6-4.8zM356.6 839c.7-11.3.9-26.5.8-42.1l18.5-13.4c3.7 28.4 7.6 57.1 10.1 81a304 304 0 0 1-18.3-47.6s.9 38.6 6.4 56.7c.9 2.9 3 6.6 6.1 10.9-13.1 15.2-25 28.8-32.2 36.8-.9-11.3-1.9-22.5-2.4-32.2l-.3-4.1a247.4 247.4 0 0 0 11.3-46zm-20.2-104.5.1-.5c4 7.6 6.8 14.2 7.3 18.7s-.3 17.4-1.9 33.9l-4.4 3a346 346 0 0 1-1.1-55.1zm-14.2 89.2 1.3 17.2c1.2 14.6 1.7 31.9 2 50a97.5 97.5 0 0 1-4.9 15.4c-2.4 5.4-6.2 12.6-10.6 20.4l.7-4.8c2.8-22.8-5.6-82.8-5.6-82.8s-5.6 43.7-10.1 74.6a241.6 241.6 0 0 1-11.9 49.2l-7.3-101.5c14.6-12.3 30.8-25.5 46.4-37.7zm-65.7 73.5-4.6-15.8 3.4-2.9 1.2 18.7zm-6.1-115.7c.8 24.4 2 48.6 3.2 68.6-3.3 2.6-6.2 5-8.7 7.3a7002 7002 0 0 1-11.9-39.9 432 432 0 0 1 17.4-36zm-27.7 64.3 1.7 6-2.1-4.5.4-1.5zm-57.9-111.3c5.6-7.2 12.3-16.3 18.6-25.2l33.8 117.1c-.7 2-1.2 4.1-1.7 6.1l-2.9-6.1s-3.7 20.9-10.1-.9c-6.4-21.9-7.3-56.4-7.3-56.4l-6.4 30.9s-11-13.6-27.6-41.9a247 247 0 0 1-6.2-11.5l9.8-12.1zM149.2 759a758.7 758.7 0 0 0 32.1 58.2V883L163 899s-30.2-58.2-33-70.1c-1.6-6.8-2.5-30.2-3-49.2 7.3-8.7 14.3-17.1 20.7-24.5.3 1.4 1 2.6 1.5 3.8zm-39.4 12.7a512.8 512.8 0 0 1 18.5-59.5c2.8 6.8 7.4 17.8 13.5 31a1039 1039 0 0 1-15.4 18.2l-.1-6.9-1.3 8.6-15.9 18.7c-.1-4 .2-7.4.7-10.1zm-17.2 50.6c2.4 15 4.4 25.8 4.4 25.8l-5.3-24.5.9-1.3zm-17.7 25.9c1.5-2.6 3.3-5.7 5.6-9.1 2.7 14.4 4.1 26.5 3.6 39.1-.9 20.9-8.2 40.9-8.2 40.9s-3.4-23.1-8.3-54.5c2.9-7.3 5.5-13.1 7.3-16.4zm-32.8 82.1 2.5 5.2s-5.6 20.9-11 42.8-20.1 56.3-20.1 56.3l-2.4-18.5c6.5-18.6 18.8-52.8 31-85.8z"/></svg>