<svg xmlns="http://www.w3.org/2000/svg" viewBox="0 0 4000 3000"><path fill="#1dc8fc" d="M0 0h4000v2800H0z"/><path fill="#7df3ff" d="M3940.9 1397.7a313.5 313.5 0 0 0-303 232.7 150.2 150.2 0 0 0-113.6 40.8 233.6 233.6 0 0 0-270.9 45.7 214.5 214.5 0 0 0-358.9-20.4 332.7 332.7 0 0 0-253.2 184 92.3 92.3 0 0 0-77.4 1h-16a103 103 0 0 0-147.3-13.6 84.6 84.6 0 0 0-148.3-27.4 131 131 0 0 0-160.2 25 180.7 180.7 0 0 0-342.2-51 191.6 191.6 0 0 0-42.6-20.9 284 284 0 0 0-520.8 26.5 103.4 103.4 0 0 0-123.9 16.2 162 162 0 0 0-234.6-59.9 207.4 207.4 0 0 0-170.3-64.4 346.9 346.9 0 0 0-248.9-104.8c-60 0-116.3 15.1-165.5 41.8A244 244 0 0 0 0 1422.7V3000h4000V1403.3a320 320 0 0 0-59.1-5.6"/><path fill="#b6f5ff" d="M4000 3000V1898.5c-42 0-77.9 25.8-92.8 62.4a162.3 162.3 0 0 0-201.6 39.5 149.6 149.6 0 0 0-56 2 58 58 0 0 0-113-4.2 109.2 109.2 0 0 0-123.5 56.9 102.9 102.9 0 0 0-134.2 48.3 278.7 278.7 0 0 0-130.6-32.4c-52 0-100.7 14.2-142.4 39a197.4 197.4 0 0 0-195.2-168.2h-1.7a230.5 230.5 0 0 0-405.4 26.1 197 197 0 0 0-259.9 58 166.7 166.7 0 0 0-289 113.2v3a121.9 121.9 0 0 0-102.1-2.6 122.4 122.4 0 0 0-234.3 49.5 121 121 0 0 0-59 15.2 188 188 0 0 0-364.4 2.4 111.5 111.5 0 0 0-127.8 16.6 102.8 102.8 0 0 0-36.6-26.2l.2-8a143 143 0 0 0-277.2-49 210 210 0 0 0-221 43.2 181.4 181.4 0 0 0-186.9-111.1A272 272 0 0 0 0 1917v1083h4000"/><path fill="#fff" d="M4000 3000v-740.8a253.2 253.2 0 0 0-220 127.7 156 156 0 0 0-72.6 24.2 108.9 108.9 0 0 0-137.6-4.2 194.6 194.6 0 0 0-322.7-21 212.4 212.4 0 0 0-217-33.6 253.4 253.4 0 0 0-462 115.3l-1.4-.1v-.3c0-60.4-41-111.2-96.7-126.2a141.4 141.4 0 0 0-276.5 33.9 176 176 0 0 0-172.3 88.7 93.5 93.5 0 0 0-62.6-50v-2.4c0-49.8-35.9-91.2-83.2-99.7a253.4 253.4 0 0 0-471.4 8.4 153.1 153.1 0 0 0-180.6 55.9 204.4 204.4 0 0 0-120.7-39.3c-45.7 0-87.9 15-122 40.1a274.6 274.6 0 0 0-458.2 29.4l-9.2-.1a192 192 0 0 0-188.4 155 169.9 169.9 0 0 0-142-6.7A188 188 0 0 0 0 2409.9V3000h4000"/></svg>