<svg xmlns="http://www.w3.org/2000/svg" xmlns:xlink="http://www.w3.org/1999/xlink" xml:space="preserve" viewBox="0 0 1697.4 641.1"><defs><path id="a" d="M1387.2 175.4c4.9 18.5 23.9 29.6 42.4 24.7 18.5-4.9 29.6-23.9 24.7-42.4-4.9-18.5-23.9-29.6-42.4-24.7-18.5 4.9-29.6 23.9-24.7 42.4m-127.5 33.7c-23.5-88.9 29.6-180.1 118.5-203.6s180.1 29.6 203.6 118.5-29.6 180.1-118.5 203.6c-89 23.5-180.1-29.6-203.6-118.5"/></defs><clipPath id="b"><use xlink:href="#a" overflow="visible"/></clipPath><path fill="#FFF" d="M1249.2-5h343.1v343.1h-343.1z" clip-path="url(#b)" opacity=".2" transform="rotate(-45.001 1420.744 166.6)"/><defs><path id="c" d="M1516.9 463.5c11.7 44.4 57.4 71 101.8 59.2 44.4-11.7 71-57.4 59.2-101.8-11.7-44.4-57.4-71-101.8-59.2-44.3 11.7-70.9 57.4-59.2 101.8m-16.1 4.2c-14.1-53.4 17.7-108 71.1-122.1 53.4-14.1 108 17.7 122.1 71.1 14.1 53.4-17.7 108-71.1 122.1-53.3 14.1-108-17.7-122.1-71.1"/></defs><clipPath id="d"><use xlink:href="#c" overflow="visible"/></clipPath><path fill="#FFF" d="M1492.5 337.3h209.9v209.9h-209.9z" clip-path="url(#d)" opacity=".2" transform="rotate(-45.001 1597.418 442.215)"/><defs><path id="e" d="M1549.3 456.3c7.3 27.8 35.9 44.4 63.7 37.1 27.8-7.3 44.4-35.9 37.1-63.7-7.3-27.8-35.9-44.4-63.7-37.1-27.8 7.3-44.4 35.9-37.1 63.7m-16.1 4.3c-9.7-36.8 12.2-74.4 49-84.1 36.8-9.7 74.4 12.2 84.1 49 9.7 36.8-12.2 74.4-49 84.1-36.7 9.6-74.4-12.3-84.1-49"/></defs><clipPath id="f"><use xlink:href="#e" overflow="visible"/></clipPath><path fill="#FFF" d="M1525.9 369.1h147.7v147.7h-147.7z" clip-path="url(#f)" opacity=".2" transform="rotate(-45.001 1599.78 443)"/><defs><path id="g" d="M89.1 530.4c0-12.7 10.3-23.1 23-23.2 12.7 0 23.1 10.3 23.2 23 0 12.7-10.3 23.1-23 23.2-12.8 0-23.2-10.3-23.2-23m-87.8.3c.2 61.2 50 110.7 111.3 110.5 61.2-.2 110.7-50 110.5-111.3-.2-61.2-50-110.7-111.3-110.5-61.2.2-110.7 50-110.5 111.3"/></defs><clipPath id="h"><use xlink:href="#g" overflow="visible"/></clipPath><path fill="#FFF" d="M-3.7 414.4h231.8v231.8H-3.7z" clip-path="url(#h)" opacity=".2" transform="rotate(-60 112.181 530.284)"/><defs><path id="i" d="M123.3 322.6c-.1-30.6 24.7-55.5 55.2-55.6 30.6-.1 55.5 24.7 55.6 55.2.1 30.6-24.7 55.5-55.2 55.6-30.5.2-55.4-24.6-55.6-55.2m-11 .1c.1 36.7 30 66.4 66.8 66.3 36.7-.1 66.4-30 66.3-66.8-.1-36.7-30-66.4-66.8-66.3-36.8.1-66.5 30-66.3 66.8"/></defs><clipPath id="j"><use xlink:href="#i" overflow="visible"/></clipPath><path fill="#FFF" d="M107.2 250.9h143.1V394H107.2z" clip-path="url(#j)" opacity=".2" transform="rotate(-60 178.784 322.434)"/><defs><path id="k" d="M145.4 322.2c-.1-19.1 15.4-34.7 34.5-34.8 19.1-.1 34.7 15.4 34.8 34.6.1 19.1-15.4 34.7-34.5 34.8-19.1 0-34.7-15.5-34.8-34.6m-11.1 0c.1 25.3 20.7 45.7 45.9 45.6 25.3-.1 45.7-20.7 45.6-45.9-.1-25.3-20.7-45.7-45.9-45.6-25.3.1-45.7 20.7-45.6 45.9"/></defs><clipPath id="l"><use xlink:href="#k" overflow="visible"/></clipPath><path fill="#FFF" d="M129.3 271.3h101.5v101.5H129.3z" clip-path="url(#l)" opacity=".2" transform="rotate(-60 180.074 322.089)"/><defs><path id="m" d="M43.7 130.9c24.2-.1 43.9 19.5 44 43.7.1 24.2-19.5 44-43.7 44-24.2.1-43.9-19.5-44-43.7-.1-24.2 19.5-43.9 43.7-44"/></defs><clipPath id="n"><use xlink:href="#m" overflow="visible"/></clipPath><path fill="#FFF" d="M-5 125.9h97.8v97.8H-5z" clip-path="url(#n)" opacity=".2" transform="rotate(-60 43.879 174.794)"/></svg>